<svg width="11" height="11" viewBox="0 0 11 11" fill="none" xmlns="http://www.w3.org/2000/svg">
<circle cx="5.5" cy="5.5" r="5.5" fill="#FF4545" fill-opacity="0.85"/>
<path d="M7.9657 5.51663C7.96622 5.60097 7.9406 5.6834 7.89235 5.75258C7.8441 5.82176 7.77559 5.87429 7.69626 5.90294L6.36253 6.39578L5.87124 7.73055C5.84214 7.80959 5.78951 7.8778 5.72043 7.92598C5.65135 7.97417 5.56915 8 5.48493 8C5.4007 8 5.31851 7.97417 5.24943 7.92598C5.18035 7.8778 5.12771 7.80959 5.09861 7.73055L4.60422 6.39578L3.26945 5.90449C3.19041 5.87539 3.1222 5.82276 3.07402 5.75368C3.02583 5.6846 3 5.6024 3 5.51818C3 5.43395 3.02583 5.35176 3.07402 5.28268C3.1222 5.2136 3.19041 5.16096 3.26945 5.13186L4.60422 4.63747L5.09551 3.3027C5.12461 3.22366 5.17724 3.15545 5.24632 3.10727C5.3154 3.05908 5.3976 3.03325 5.48182 3.03325C5.56605 3.03325 5.64824 3.05908 5.71732 3.10727C5.7864 3.15545 5.83904 3.22366 5.86813 3.3027L6.36253 4.63747L7.6973 5.12876C7.77669 5.15767 7.84514 5.21051 7.89322 5.27998C7.9413 5.34946 7.96662 5.43214 7.9657 5.51663ZM6.51768 3.0343H6.9314V3.44802C6.9314 3.50288 6.95319 3.5555 6.99198 3.59429C7.03078 3.63309 7.08339 3.65488 7.13826 3.65488C7.19312 3.65488 7.24574 3.63309 7.28453 3.59429C7.32332 3.5555 7.34512 3.50288 7.34512 3.44802V3.0343H7.75884C7.8137 3.0343 7.86632 3.01251 7.90511 2.97371C7.9439 2.93492 7.9657 2.8823 7.9657 2.82744C7.9657 2.77258 7.9439 2.71996 7.90511 2.68117C7.86632 2.64238 7.8137 2.62058 7.75884 2.62058H7.34512V2.20686C7.34512 2.152 7.32332 2.09938 7.28453 2.06059C7.24574 2.02179 7.19312 2 7.13826 2C7.08339 2 7.03078 2.02179 6.99198 2.06059C6.95319 2.09938 6.9314 2.152 6.9314 2.20686V2.62058H6.51768C6.46281 2.62058 6.4102 2.64238 6.3714 2.68117C6.33261 2.71996 6.31082 2.77258 6.31082 2.82744C6.31082 2.8823 6.33261 2.93492 6.3714 2.97371C6.4102 3.01251 6.46281 3.0343 6.51768 3.0343ZM8.79314 3.86174H8.58628V3.65488C8.58628 3.60002 8.56449 3.5474 8.52569 3.50861C8.4869 3.46982 8.43428 3.44802 8.37942 3.44802C8.32456 3.44802 8.27194 3.46982 8.23315 3.50861C8.19435 3.5474 8.17256 3.60002 8.17256 3.65488V3.86174H7.9657C7.91084 3.86174 7.85822 3.88354 7.81943 3.92233C7.78063 3.96112 7.75884 4.01374 7.75884 4.0686C7.75884 4.12347 7.78063 4.17608 7.81943 4.21488C7.85822 4.25367 7.91084 4.27546 7.9657 4.27546H8.17256V4.48232C8.17256 4.53719 8.19435 4.5898 8.23315 4.6286C8.27194 4.66739 8.32456 4.68918 8.37942 4.68918C8.43428 4.68918 8.4869 4.66739 8.52569 4.6286C8.56449 4.5898 8.58628 4.53719 8.58628 4.48232V4.27546H8.79314C8.848 4.27546 8.90062 4.25367 8.93941 4.21488C8.97821 4.17608 9 4.12347 9 4.0686C9 4.01374 8.97821 3.96112 8.93941 3.92233C8.90062 3.88354 8.848 3.86174 8.79314 3.86174Z" fill="white"/>
</svg>
