<svg width="193" height="30" viewBox="0 0 193 30" fill="none" xmlns="http://www.w3.org/2000/svg">
<path d="M0.875 30V0.90909H13.4318C15.5909 0.90909 17.4801 1.30208 19.0994 2.08807C20.7188 2.87405 21.9782 4.00568 22.8778 5.48295C23.7775 6.96023 24.2273 8.73106 24.2273 10.7955C24.2273 12.8788 23.7633 14.6354 22.8352 16.0653C21.9167 17.4953 20.6241 18.5748 18.9574 19.304C17.3002 20.0331 15.3636 20.3977 13.1477 20.3977H5.64773V14.2614H11.5568C12.4848 14.2614 13.2756 14.1477 13.929 13.9205C14.5919 13.6837 15.0985 13.3097 15.4489 12.7983C15.8087 12.2869 15.9886 11.6193 15.9886 10.7955C15.9886 9.96212 15.8087 9.28504 15.4489 8.7642C15.0985 8.2339 14.5919 7.84564 13.929 7.59943C13.2756 7.34375 12.4848 7.21591 11.5568 7.21591H8.77273V30H0.875ZM17.9205 16.6477L25.1932 30H16.6136L9.51136 16.6477H17.9205ZM27.5938 30V0.90909H40.2074C42.4233 0.90909 44.2841 1.20739 45.7898 1.80398C47.3049 2.40057 48.446 3.24337 49.2131 4.33239C49.9896 5.4214 50.3778 6.70454 50.3778 8.18182C50.3778 9.25189 50.1411 10.2273 49.6676 11.108C49.2036 11.9886 48.5502 12.7273 47.7074 13.3239C46.8646 13.911 45.8797 14.3182 44.7528 14.5455V14.8295C46.0028 14.8769 47.1392 15.1941 48.1619 15.7812C49.1847 16.3589 49.9991 17.1591 50.6051 18.1818C51.2112 19.1951 51.5142 20.3883 51.5142 21.7614C51.5142 23.3523 51.0975 24.768 50.2642 26.0085C49.4403 27.2491 48.2661 28.2244 46.7415 28.9347C45.2169 29.6449 43.3987 30 41.2869 30H27.5938ZM35.4915 23.6932H39.1847C40.5104 23.6932 41.5047 23.447 42.1676 22.9545C42.8305 22.4527 43.1619 21.714 43.1619 20.7386C43.1619 20.0568 43.0057 19.4792 42.6932 19.0057C42.3807 18.5322 41.9356 18.1723 41.358 17.9261C40.7898 17.6799 40.1032 17.5568 39.2983 17.5568H35.4915V23.6932ZM35.4915 12.6705H38.7301C39.4214 12.6705 40.0322 12.5616 40.5625 12.3438C41.0928 12.1259 41.5047 11.8134 41.7983 11.4062C42.1013 10.9896 42.2528 10.483 42.2528 9.88636C42.2528 8.98674 41.9309 8.30019 41.2869 7.8267C40.643 7.34375 39.8286 7.10227 38.8438 7.10227H35.4915V12.6705ZM62.7784 0.90909L67.5511 9.375H67.7784L72.608 0.90909H81.4148L72.7216 15.4545L81.7557 30H72.7216L67.7784 21.3636H67.5511L62.608 30H53.6307L62.5511 15.4545L53.9148 0.90909H62.7784Z" fill="url(#paint0_linear_0_90)"/>
<path d="M84.8203 30V0.90909H92.718V12.2727H103.173V0.90909H111.07V30H103.173V18.6364H92.718V30H84.8203ZM114.82 30V0.90909H135.786V7.27273H122.718V12.2727H134.707V18.6364H122.718V23.6364H135.729V30H114.82ZM147.26 30H138.737L148.339 0.90909H159.135L168.737 30H160.214L153.851 8.92045H153.624L147.26 30ZM145.669 18.5227H161.692V24.4318H145.669V18.5227ZM167.072 7.27273V0.90909H192.356V7.27273H183.606V30H175.822V7.27273H167.072Z" fill="white"/>
<defs>
<linearGradient id="paint0_linear_0_90" x1="-1" y1="14.5" x2="197" y2="14.5" gradientUnits="userSpaceOnUse">
<stop stop-color="#FF3B2E"/>
<stop offset="1" stop-color="#FF3B2E"/>
</linearGradient>
</defs>
</svg>
